<?xml version="1.0" ?><!DOCTYPE svg  PUBLIC '-//W3C//DTD SVG 1.0//EN'  'http://www.w3.org/TR/2001/REC-SVG-20010904/DTD/svg10.dtd'><svg enable-background="new 0 0 32 32" height="32px" id="Layer_1" version="1.0" viewBox="0 0 32 32" width="32px" xml:space="preserve" xmlns="http://www.w3.org/2000/svg" xmlns:xlink="http://www.w3.org/1999/xlink"><path d="M32,6.154v6.154c0,0.681-0.551,1.23-1.23,1.23c-0.681,0-1.23-0.55-1.23-1.23v-3.21l-8.92,10.175  c-0.438,0.494-1.18,0.559-1.695,0.149l-5.293-4.236L2.102,26.716c-0.241,0.241-0.555,0.361-0.87,0.361s-0.63-0.12-0.871-0.361  c-0.48-0.479-0.48-1.259,0-1.739l12.307-12.308c0.447-0.444,1.152-0.48,1.642-0.092l5.233,4.188l8.227-9.381h-3.153  c-0.681,0-1.229-0.552-1.229-1.231c0-0.681,0.551-1.231,1.229-1.231h6.155C31.449,4.923,32,5.474,32,6.154z"/></svg>